<svg width="64" height="64" viewBox="0 0 64 64" fill="none" xmlns="http://www.w3.org/2000/svg">
<path fill-rule="evenodd" clip-rule="evenodd" d="M35 12C35 10.3431 33.6569 9 32 9C30.3431 9 29 10.3431 29 12V15H27V12C27 9.23858 29.2386 7 32 7C34.7614 7 37 9.23858 37 12V15H35V12Z" fill="black"/>
<path d="M48 45H45H19H16C15.5414 45 15.0948 45.0515 14.6656 45.1489C15.7579 46.2896 17.296 47 19 47H45C46.704 47 48.2421 46.2896 49.3344 45.1489C48.9052 45.0515 48.4586 45 48 45Z" fill="black"/>
<path d="M27 27H37C38.777 27 40.3736 26.2275 41.4722 25H37H27H22.5278C23.6264 26.2275 25.223 27 27 27Z" fill="black"/>
<path fill-rule="evenodd" clip-rule="evenodd" d="M21 21C21 17.6863 23.6863 15 27 15H37C40.3137 15 43 17.6863 43 21C43 22.5367 42.4223 23.9385 41.4722 25H37C39.2091 25 41 23.2091 41 21C41 18.7909 39.2091 17 37 17H27C24.7909 17 23 18.7909 23 21C23 23.2091 24.7909 25 27 25H22.5278C21.5777 23.9385 21 22.5367 21 21ZM22 35C19.7909 35 18 33.2091 18 31C18 28.7909 19.7909 27 22 27H27C25.223 27 23.6264 26.2275 22.5278 25H22C18.6863 25 16 27.6863 16 31C16 32.6097 16.6339 34.0713 17.6656 35.1489C14.9942 35.7556 13 38.1449 13 41C13 42.6097 13.6339 44.0713 14.6656 45.1489C11.9942 45.7556 10 48.1449 10 51C10 54.3137 12.6863 57 16 57H48C51.3137 57 54 54.3137 54 51C54 48.1449 52.0058 45.7556 49.3344 45.1489C50.3661 44.0713 51 42.6097 51 41C51 38.1449 49.0058 35.7556 46.3344 35.1489C47.3661 34.0713 48 32.6097 48 31C48 27.6863 45.3137 25 42 25H41.4722C40.3736 26.2275 38.777 27 37 27H42C44.2091 27 46 28.7909 46 31C46 33.2091 44.2091 35 42 35H45C45.4586 35 45.9052 35.0515 46.3344 35.1489C45.2421 36.2896 43.704 37 42 37H45C47.2091 37 49 38.7909 49 41C49 43.2091 47.2091 45 45 45H48C48.4586 45 48.9052 45.0515 49.3344 45.1489C48.2421 46.2896 46.704 47 45 47H48C50.2091 47 52 48.7909 52 51C52 53.2091 50.2091 55 48 55H16C13.7909 55 12 53.2091 12 51C12 48.7909 13.7909 47 16 47H19C17.296 47 15.7579 46.2896 14.6656 45.1489C15.0948 45.0515 15.5414 45 16 45H19C16.7909 45 15 43.2091 15 41C15 38.7909 16.7909 37 19 37H22C20.296 37 18.7579 36.2896 17.6656 35.1489C18.0948 35.0515 18.5414 35 19 35H22Z" fill="black"/>
<path d="M45 35H42H22H19C18.5414 35 18.0948 35.0515 17.6656 35.1489C18.7579 36.2896 20.296 37 22 37H42C43.704 37 45.2421 36.2896 46.3344 35.1489C45.9052 35.0515 45.4586 35 45 35Z" fill="black"/>
</svg>
